<?xml version="1.0" standalone="no"?>
<!DOCTYPE svg PUBLIC "-//W3C//DTD SVG 20010904//EN"
 "http://www.w3.org/TR/2001/REC-SVG-20010904/DTD/svg10.dtd">
<svg version="1.0" xmlns="http://www.w3.org/2000/svg"
 width="128.000000pt" height="128.000000pt" viewBox="0 0 128.000000 128.000000"
 preserveAspectRatio="xMidYMid meet">

<g transform="translate(0.000000,128.000000) scale(0.100000,-0.100000)"
fill="#000000" stroke="none">
<path d="M615 1234 c-9 -9 -15 -24 -13 -33 2 -9 109 -77 248 -157 l245 -141 3
-237 c1 -150 -1 -236 -8 -236 -5 0 -47 22 -92 49 -386 226 -845 481 -862 479
-21 -3 -21 -7 -24 -315 l-2 -311 264 -151 c163 -94 270 -149 280 -145 20 8 31
43 17 57 -6 6 -118 73 -249 148 l-237 137 -3 236 c-1 139 1 236 7 236 5 0 217
-119 472 -265 284 -164 470 -265 483 -263 21 3 21 7 24 315 l2 311 -264 151
c-145 83 -266 151 -269 151 -3 0 -13 -7 -22 -16z"/>
<path d="M381 1081 c-102 -58 -178 -107 -170 -109 16 -3 360 191 360 203 1 4
-1 8 -3 10 -1 1 -86 -45 -187 -104z"/>
<path d="M630 931 c0 -122 4 -202 10 -206 7 -4 10 63 10 194 0 122 -4 202 -10
206 -7 4 -10 -63 -10 -194z"/>
<path d="M385 505 c-88 -52 -161 -99 -164 -106 -2 -6 1 -10 6 -8 28 12 334
192 338 200 15 23 -31 1 -180 -86z"/>
<path d="M880 209 c-194 -112 -184 -105 -173 -112 7 -4 351 188 370 206 3 4 0
7 -8 7 -8 0 -93 -45 -189 -101z"/>
</g>
</svg>
